<svg width="11" height="14" viewBox="0 0 11 14" fill="none" xmlns="http://www.w3.org/2000/svg">
<path fill-rule="evenodd" clip-rule="evenodd" d="M5.43368 0.294922C6.65892 0.294922 7.84852 0.708648 8.78648 1.45998V1.45995C10.0117 2.4408 10.7324 3.83545 10.8195 5.38601C10.903 6.91686 10.3309 8.41462 9.25055 9.49498L5.66926 13.0294C5.53054 13.1669 5.28992 13.1657 5.1512 13.0282L1.62051 9.49752C0.537701 8.41471 -0.0356278 6.91573 0.0490816 5.38604C0.135007 3.83554 0.85689 2.4409 2.08088 1.45998C3.0176 0.708648 4.20846 0.294922 5.43368 0.294922ZM3.02744 5.68454C3.02744 7.01165 4.10654 8.09078 5.43368 8.09078C6.76078 8.09078 7.84114 7.01168 7.83991 5.68454C7.83991 4.35744 6.76081 3.27831 5.43368 3.27831C4.10657 3.27831 3.02744 4.35741 3.02744 5.68454Z" fill="white"/>
<path d="M5.43367 4.51147C4.78668 4.51147 4.26123 5.03693 4.26123 5.68392C4.26123 6.33091 4.78668 6.85636 5.43367 6.85636C6.08066 6.85636 6.60612 6.33091 6.60612 5.68392C6.60612 5.03693 6.08066 4.51147 5.43367 4.51147Z" fill="white"/>
</svg>
